PathFileType	4	(X/Y/Z)	 s05c0101.trc
DataRate	CameraRate	NumFrames	NumMarkers	Units	OrigDataRate	OrigDataStartFrame	OrigNumFrames
200	200	4	50	mm	200	751	2000
Frame#	Time	racr			lacr			c7			jug			rlel			rdr			llel			ldr			s2			lic			ric			lasi			rasi			rpsi			lpsi			rgt			lgt			rth1			rth2			rth3			rth4			rlfc			rmfc			rsh1			rsh2			rsh3			rsh4			rlmal			rmmal			rcal			rtoe			rmt5			lth1			lth2			lth4			lth3			llfc			lmfc			lsh1			lsh2			lsh3			lsh4			llmal			lmmal			lcal			ltoe			lmt5			SBIKE			LBIKE			RBIKE			
		X1	Y1	Z1	X2	Y2	Z2	X3	Y3	Z3	X4	Y4	Z4	X5	Y5	Z5	X6	Y6	Z6	X7	Y7	Z7	X8	Y8	Z8	X9	Y9	Z9	X10	Y10	Z10	X11	Y11	Z11	X12	Y12	Z12	X13	Y13	Z13	X14	Y14	Z14	X15	Y15	Z15	X16	Y16	Z16	X17	Y17	Z17	X18	Y18	Z18	X19	Y19	Z19	X20	Y20	Z20	X21	Y21	Z21	X22	Y22	Z22	X23	Y23	Z23	X24	Y24	Z24	X25	Y25	Z25	X26	Y26	Z26	X27	Y27	Z27	X28	Y28	Z28	X29	Y29	Z29	X30	Y30	Z30	X31	Y31	Z31	X32	Y32	Z32	X33	Y33	Z33	X34	Y34	Z34	X35	Y35	Z35	X36	Y36	Z36	X37	Y37	Z37	X38	Y38	Z38	X39	Y39	Z39	X40	Y40	Z40	X41	Y41	Z41	X42	Y42	Z42	X43	Y43	Z43	X44	Y44	Z44	X45	Y45	Z45	X46	Y46	Z46	X47	Y47	Z47	X48	Y48	Z48	X49	Y49	Z49	X50	Y50	Z50	
751	3.7550	451.602361	1319.546320	-129.289955	451.610530	1342.569572	-381.286003	415.670847	1405.838289	-256.168639	392.293447	1243.597788	-264.385254	496.816720	1076.667454	-3.183018	693.782169	923.450578	-66.958594	457.039180	1084.543169	-524.345142	680.333888	942.372921	-453.344781	-119.740970	1170.583522	-245.928220	16.487807	1203.079014	-394.537352	30.617746	1186.354482	-109.568193	69.454506	1150.304933	-368.037218	71.747307	1131.788915	-143.449353	-85.561570	1220.451486	-199.695296	-88.673895	1228.149249	-287.528687	0.059154	1055.701830	-90.049799	-43.670476	1093.178246	-424.735022	96.637053	990.854151	-78.322112	179.518211	958.584346	-78.943109	233.010810	888.495928	-83.400029	199.760096	986.900866	-91.863090	334.963227	784.775090	-109.570327	321.560313	783.745850	-220.949555	245.880987	723.945292	-82.927944	198.001125	650.944297	-97.144284	122.337939	608.928025	-100.833131	219.040637	632.285950	-123.937472	27.613391	518.768470	-109.081696	52.690351	526.847623	-191.958115	-45.703045	541.093304	-157.192591	152.646339	320.717387	-149.588618	62.569372	374.213598	-86.836248	58.341636	985.871141	-448.235691	136.679376	950.563006	-448.326119	161.316866	977.219761	-436.276755	187.623835	876.027576	-449.082957	287.300961	765.883413	-420.539892	277.350394	749.669271	-314.443014	255.223932	640.287860	-446.807373	268.194421	554.490170	-434.879326	235.917021	472.056304	-433.823008	298.674222	553.779051	-410.936218	228.023967	349.577023	-428.345346	253.948177	378.934009	-351.096627	170.647554	304.957475	-385.831061	465.243877	308.271336	-394.667295	359.050725	273.009561	-456.998468	-258.378571	898.864138	-281.572333	-43.570699	84.571572	-475.047930	-51.780109	80.014200	-77.510341	
752	3.7600	451.055275	1320.125055	-128.399014	452.580140	1343.011716	-380.312999	416.066429	1406.484261	-255.249035	392.603009	1244.186489	-263.677423	496.853506	1077.202250	-2.984138	693.962910	923.662898	-67.072075	459.439924	1086.105459	-524.521200	681.064152	942.039867	-452.942835	-117.470272	1170.011168	-251.610755	18.718835	1202.376848	-397.063934	29.538627	1188.007027	-111.922202	70.398168	1148.563718	-369.004210	71.458043	1133.380907	-145.058735	-85.672117	1221.383999	-202.844247	-87.688501	1228.075050	-291.465359	0.349867	1058.215377	-91.604747	-42.218594	1091.771079	-426.707105	98.013113	994.988088	-78.408021	181.416982	964.621865	-79.390692	236.446765	895.676399	-83.199871	201.047331	993.228863	-92.510067	340.070359	793.478718	-109.158003	326.713141	792.521734	-219.198626	250.395945	732.940408	-82.704331	202.116219	660.039691	-97.196641	126.740954	618.447626	-100.854388	223.659331	641.450286	-123.530178	31.803999	528.803942	-108.975349	56.827499	536.781649	-191.921011	-41.120491	551.527801	-156.658519	155.827124	330.244319	-149.524664	66.131723	383.960794	-86.883769	57.791579	982.610053	-449.947046	135.298600	945.335731	-449.660213	160.659795	971.516771	-437.894347	184.246449	869.503171	-450.032910	281.651476	757.560817	-421.127075	271.207745	741.444496	-315.419392	250.345522	631.777571	-447.723788	264.035210	546.293257	-435.770139	232.592689	463.343768	-434.859403	294.364382	545.772867	-411.576791	225.996457	341.712123	-429.353271	252.551093	372.182688	-351.883305	168.270925	297.679210	-387.134095	462.910450	297.407788	-394.251401	356.668755	263.597128	-457.217764	-258.339962	898.904869	-281.574939	-43.548703	84.584897	-475.089849	-51.771180	80.047037	-77.535618	
753	3.7650	450.667135	1320.850944	-127.461012	453.607902	1343.691831	-379.490704	416.416920	1407.339259	-254.225299	392.943016	1244.905776	-263.074527	497.113473	1078.008975	-2.866345	694.246000	923.829345	-67.030286	461.987409	1087.738513	-524.778419	681.953294	941.701161	-452.446867	-118.439340	1171.855979	-251.673729	21.003025	1201.869608	-399.518609	28.395484	1189.891786	-114.253276	72.456583	1147.648546	-371.061990	71.209563	1135.232784	-146.643020	-85.166696	1220.833206	-208.554475	-86.830796	1227.970526	-295.188504	0.601743	1061.080408	-93.126947	-40.836225	1090.510285	-428.608024	99.170616	999.563128	-78.864081	183.198939	970.852838	-79.876131	239.646441	903.079212	-83.155935	202.181890	999.755062	-93.115371	345.203513	802.624566	-108.894795	331.847774	800.690146	-218.391468	255.268317	742.129737	-82.441822	206.748947	669.362912	-96.863467	131.209226	628.071815	-100.823216	228.380789	650.480963	-123.083615	35.849989	538.716671	-109.225301	61.342024	546.360698	-191.768942	-37.107418	561.631017	-156.934094	159.672041	339.654675	-149.486937	70.046409	393.744313	-86.948378	57.036575	979.521688	-451.325399	133.547532	940.314232	-451.050094	159.617271	965.876551	-439.606281	180.549984	863.265549	-451.045032	275.449958	749.430081	-421.879222	264.784266	733.586674	-316.368491	245.187466	623.666242	-449.016444	259.444895	538.299767	-436.775326	228.735389	455.135661	-436.004814	290.186141	538.420194	-413.224743	223.464311	334.160560	-430.714634	250.585762	365.797143	-352.593626	165.353509	290.667803	-388.648339	460.050906	286.739504	-393.816298	353.820320	254.162817	-457.494157	-258.150319	898.951067	-281.687593	-43.498092	84.586566	-475.107761	-51.720432	80.041697	-77.574107	
754	3.7700	450.392658	1321.658831	-126.510652	454.650477	1344.528584	-378.762156	416.782481	1408.192491	-253.517584	393.176731	1245.811087	-262.590684	497.548035	1078.772882	-3.104387	694.549940	923.593817	-67.482389	464.603366	1089.372732	-525.048846	682.857541	941.377371	-452.114083	-117.539852	1172.520272	-255.121384	23.327664	1201.368511	-401.765731	27.240762	1191.890391	-116.571365	74.374524	1147.242465	-372.846170	70.961145	1137.212889	-148.175441	-85.258437	1221.907141	-212.688050	-85.790014	1228.228114	-299.208041	1.069960	1064.222083	-94.579000	-39.416554	1089.376869	-430.399135	100.222957	1004.401469	-79.888084	184.856407	977.359253	-80.401043	242.625055	910.716776	-83.065564	203.328737	1006.531828	-93.766544	349.981074	812.018114	-108.432852	337.082230	809.407399	-217.971799	260.082829	751.539439	-82.097625	211.959602	678.855211	-96.245994	135.862659	637.703276	-100.689889	233.637723	659.896006	-122.303746	40.528508	548.273531	-109.196327	66.062971	556.002671	-191.687032	-32.383775	571.091682	-157.118335	164.040659	349.144011	-149.536979	74.515118	403.208849	-87.013286	56.091790	976.685754	-452.619853	131.569024	935.486495	-452.438216	158.290685	960.502200	-441.834185	176.506349	857.135683	-452.137984	268.949412	741.603296	-422.740684	257.803025	726.002106	-317.353676	239.505562	615.871751	-450.209293	254.418326	530.704517	-437.958426	224.438324	447.278525	-437.309694	285.075155	531.214954	-414.438965	220.524288	326.775680	-431.931966	248.082382	359.778900	-353.230466	161.975335	284.036985	-390.303686	456.665203	276.221181	-393.328023	350.446245	245.105944	-457.839179	-258.050947	899.004642	-281.859405	-43.449976	84.617067	-475.128811	-51.714955	80.089269	-77.595238	
